# xmcd CD database file
#
# Track frame offsets:
#	150
#	18263
#	36700
#	54033
#	70805
#	92293
#	106025
#	127180
#	145323
#	167370
#	184230
#	200830
#	217793
#	241243
#	260115
#	278268
#	298928
#
# Disc length: 4172 seconds
#
# Revision: 1
# Processed by: cddbd v1.5.1PL2 Copyright (c) Steve Scherf et al.
# Submitted via: CDex 1.51
#
DISCID=f4104a11
DTITLE=Various Artist - WORLDWIDE HUSTLAZ AND THUGZ
DYEAR=2004
DGENRE=Rap
TTITLE0=They Know/JT THA BIGGA FIGGA
TTITLE1=Still Thuggin/JT,THE GAMBLAZ,DAZ DILENGER
TTITLE2=Beware/YUKMOUTH,MAC MALL,JT THA BIGGA FIGGA
TTITLE3=You Ain't RunninShit/SOUTHERN BOYZ
TTITLE4=Gma 4 Sale/JT&YUKMOUTH
TTITLE5=Ride Or Die/IMMORTAL OUTLAWZ
TTITLE6=Thug Poetry/SAFFIR&SPICE 1
TTITLE7=Nuthin Can Save Ya/ALLI BABA
TTITLE8=Fuck The World/MAD MAN
TTITLE9=Never Let'em See You Sweat/THE GAMBLAZ&YOUKMOUTH
TTITLE10=1Little 2 Little/G-UNIT
TTITLE11=Mind Ya Business/SKIP
TTITLE12=Havin Thangs/ALLI BABA
TTITLE13=PAper Chasin'/SAN QUINN,MAC MALL&JT
TTITLE14=Gotta Get Mines/BILLY BAVGATE,JT&MASTER P
TTITLE15=Kick The Real/E-40
TTITLE16=Deep Situations/E-40
EXTD=YEAR: 2004
EXTT0=
EXTT1=
EXTT2=
EXTT3=
EXTT4=
EXTT5=
EXTT6=
EXTT7=
EXTT8=
EXTT9=
EXTT10=
EXTT11=
EXTT12=
EXTT13=
EXTT14=
EXTT15=
EXTT16=
PLAYORDER=
